<?xml version="1.0" standalone="no"?>
<svg xmlns:xlink="http://www.w3.org/1999/xlink" id="wave" style="transform:rotate(0deg); transition: 0.3s" viewBox="0 0 1440 180" version="1.1" xmlns="http://www.w3.org/2000/svg"><defs><linearGradient id="sw-gradient-0" x1="0" x2="0" y1="1" y2="0"><stop stop-color="rgba(47, 95, 205, 1)" offset="0%"/><stop stop-color="rgba(38, 144, 218, 1)" offset="100%"/></linearGradient></defs><path style="transform:translate(0, 0px); opacity:1" fill="url(#sw-gradient-0)" d="M0,0L14.1,3C28.2,6,56,12,85,21C112.9,30,141,42,169,63C197.6,84,226,114,254,132C282.4,150,311,156,339,144C367.1,132,395,102,424,84C451.8,66,480,60,508,66C536.5,72,565,90,593,108C621.2,126,649,144,678,138C705.9,132,734,102,762,99C790.6,96,819,120,847,108C875.3,96,904,48,932,45C960,42,988,84,1016,105C1044.7,126,1073,126,1101,114C1129.4,102,1158,78,1186,84C1214.1,90,1242,126,1271,132C1298.8,138,1327,114,1355,105C1383.5,96,1412,102,1440,111C1468.2,120,1496,132,1525,114C1552.9,96,1581,48,1609,24C1637.6,0,1666,0,1694,27C1722.4,54,1751,108,1779,123C1807.1,138,1835,114,1864,90C1891.8,66,1920,42,1948,54C1976.5,66,2005,114,2019,138L2032.9,162L2032.9,180L2018.8,180C2004.7,180,1976,180,1948,180C1920,180,1892,180,1864,180C1835.3,180,1807,180,1779,180C1750.6,180,1722,180,1694,180C1665.9,180,1638,180,1609,180C1581.2,180,1553,180,1525,180C1496.5,180,1468,180,1440,180C1411.8,180,1384,180,1355,180C1327.1,180,1299,180,1271,180C1242.4,180,1214,180,1186,180C1157.6,180,1129,180,1101,180C1072.9,180,1045,180,1016,180C988.2,180,960,180,932,180C903.5,180,875,180,847,180C818.8,180,791,180,762,180C734.1,180,706,180,678,180C649.4,180,621,180,593,180C564.7,180,536,180,508,180C480,180,452,180,424,180C395.3,180,367,180,339,180C310.6,180,282,180,254,180C225.9,180,198,180,169,180C141.2,180,113,180,85,180C56.5,180,28,180,14,180L0,180Z"/><defs><linearGradient id="sw-gradient-1" x1="0" x2="0" y1="1" y2="0"><stop stop-color="rgba(81, 91, 209, 1)" offset="0%"/><stop stop-color="rgba(64, 12, 186, 1)" offset="100%"/></linearGradient></defs><path style="transform:translate(0, 50px); opacity:0.9" fill="url(#sw-gradient-1)" d="M0,126L14.1,114C28.2,102,56,78,85,57C112.9,36,141,18,169,27C197.6,36,226,72,254,78C282.4,84,311,60,339,42C367.1,24,395,12,424,21C451.8,30,480,60,508,87C536.5,114,565,138,593,150C621.2,162,649,162,678,159C705.9,156,734,150,762,123C790.6,96,819,48,847,45C875.3,42,904,84,932,111C960,138,988,150,1016,129C1044.7,108,1073,54,1101,36C1129.4,18,1158,36,1186,54C1214.1,72,1242,90,1271,90C1298.8,90,1327,72,1355,66C1383.5,60,1412,66,1440,57C1468.2,48,1496,24,1525,21C1552.9,18,1581,36,1609,36C1637.6,36,1666,18,1694,30C1722.4,42,1751,84,1779,102C1807.1,120,1835,114,1864,114C1891.8,114,1920,120,1948,120C1976.5,120,2005,114,2019,111L2032.9,108L2032.9,180L2018.8,180C2004.7,180,1976,180,1948,180C1920,180,1892,180,1864,180C1835.3,180,1807,180,1779,180C1750.6,180,1722,180,1694,180C1665.9,180,1638,180,1609,180C1581.2,180,1553,180,1525,180C1496.5,180,1468,180,1440,180C1411.8,180,1384,180,1355,180C1327.1,180,1299,180,1271,180C1242.4,180,1214,180,1186,180C1157.6,180,1129,180,1101,180C1072.9,180,1045,180,1016,180C988.2,180,960,180,932,180C903.5,180,875,180,847,180C818.8,180,791,180,762,180C734.1,180,706,180,678,180C649.4,180,621,180,593,180C564.7,180,536,180,508,180C480,180,452,180,424,180C395.3,180,367,180,339,180C310.6,180,282,180,254,180C225.9,180,198,180,169,180C141.2,180,113,180,85,180C56.5,180,28,180,14,180L0,180Z"/><defs><linearGradient id="sw-gradient-2" x1="0" x2="0" y1="1" y2="0"><stop stop-color="rgba(97, 218, 251, 1)" offset="0%"/><stop stop-color="rgba(81, 91, 209, 1)" offset="100%"/></linearGradient></defs><path style="transform:translate(0, 100px); opacity:0.8" fill="url(#sw-gradient-2)" d="M0,0L14.1,9C28.2,18,56,36,85,57C112.9,78,141,102,169,117C197.6,132,226,138,254,135C282.4,132,311,120,339,111C367.1,102,395,96,424,78C451.8,60,480,30,508,33C536.5,36,565,72,593,72C621.2,72,649,36,678,24C705.9,12,734,24,762,33C790.6,42,819,48,847,45C875.3,42,904,30,932,33C960,36,988,54,1016,78C1044.7,102,1073,132,1101,141C1129.4,150,1158,138,1186,132C1214.1,126,1242,126,1271,108C1298.8,90,1327,54,1355,54C1383.5,54,1412,90,1440,111C1468.2,132,1496,138,1525,141C1552.9,144,1581,144,1609,129C1637.6,114,1666,84,1694,63C1722.4,42,1751,30,1779,30C1807.1,30,1835,42,1864,42C1891.8,42,1920,30,1948,48C1976.5,66,2005,114,2019,138L2032.9,162L2032.9,180L2018.8,180C2004.7,180,1976,180,1948,180C1920,180,1892,180,1864,180C1835.3,180,1807,180,1779,180C1750.6,180,1722,180,1694,180C1665.9,180,1638,180,1609,180C1581.2,180,1553,180,1525,180C1496.5,180,1468,180,1440,180C1411.8,180,1384,180,1355,180C1327.1,180,1299,180,1271,180C1242.4,180,1214,180,1186,180C1157.6,180,1129,180,1101,180C1072.9,180,1045,180,1016,180C988.2,180,960,180,932,180C903.5,180,875,180,847,180C818.8,180,791,180,762,180C734.1,180,706,180,678,180C649.4,180,621,180,593,180C564.7,180,536,180,508,180C480,180,452,180,424,180C395.3,180,367,180,339,180C310.6,180,282,180,254,180C225.9,180,198,180,169,180C141.2,180,113,180,85,180C56.5,180,28,180,14,180L0,180Z"/></svg>